<svg width="512" height="512" viewBox="0 0 512 512" xmlns="http://www.w3.org/2000/svg">
  <defs>
    <linearGradient id="primaryGradient" x1="0%" y1="0%" x2="100%" y2="100%">
      <stop offset="0%" stop-color="#4F46E5" />
      <stop offset="100%" stop-color="#4F46E5" stop-opacity="0.8" />
    </linearGradient>
    <filter id="shadow" x="-20%" y="-20%" width="140%" height="140%">
      <feDropShadow dx="0" dy="16" stdDeviation="24" flood-color="#4F46E5" flood-opacity="0.25" />
    </filter>
  </defs>

  <g filter="url(#shadow)">
    <!-- Base gradient rect -->
    <rect x="32" y="32" width="448" height="448" rx="156.8" fill="url(#primaryGradient)" />
    
    <!-- Overlay glow / mix-blend -->
    <rect x="32" y="32" width="448" height="448" rx="156.8" fill="#ffffff" fill-opacity="0.2" style="mix-blend-mode: overlay;" />

    <!-- The icon -->
    <g transform="translate(116, 116) scale(11.6667)">
      <path d="M12 22s-8-4.5-8-11.8A8 8 0 0 1 12 2a8 8 0 0 1 8 8.2c0 7.3-8 11.8-8 11.8z" fill="none" stroke="white" stroke-width="2.5" stroke-linecap="round" stroke-linejoin="round" />
      <path d="M8 11l4-3 4 3" fill="none" stroke="white" stroke-width="2.5" stroke-linecap="round" stroke-linejoin="round" />
      <path d="M9 11v4h2v-2h2v2h2v-4" fill="none" stroke="white" stroke-width="2.5" stroke-linecap="round" stroke-linejoin="round" />
    </g>
  </g>
</svg>
